<svg xmlns="http://www.w3.org/2000/svg" viewBox="0 0 48 48">
  <rect width="48" height="48" rx="12" fill="#3a5a40" />
  <g fill="#f4f4ec">
    <path d="M35 23 Q41 22 41.5 28 Q41.5 32.5 38 33.5 Q40.2 30 38.5 27 Q37 24.5 35 25.5 Z" />
    <rect x="15" y="31" width="3.4" height="10" rx="1.6" />
    <rect x="20" y="31" width="3.4" height="10" rx="1.6" />
    <rect x="27" y="31" width="3.4" height="10" rx="1.6" />
    <rect x="31.5" y="31" width="3.4" height="10" rx="1.6" />
    <rect x="12" y="22" width="24" height="10" rx="4" />
    <rect x="12" y="16" width="8" height="9" rx="3" />
    <rect x="7" y="14" width="10" height="9" rx="4" />
    <rect x="4.5" y="16.5" width="4.5" height="5.5" rx="2.2" />
    <path d="M9.6 14.6 Q7 8.4 4.9 7 Q9 9.6 11.8 14.6 Z" />
    <path d="M14.4 14.6 Q17 8.4 19.1 7 Q15 9.6 12.2 14.6 Z" />
    <ellipse cx="25" cy="14.8" rx="5" ry="3.8" />
    <circle cx="20.6" cy="11.6" r="2.8" />
    <path d="M18.1 10.8 L14 10.4 L18.1 13.4 Z" />
    <path d="M29.6 16 L34.8 13.8 L30 18 Z" />
    <rect x="23" y="18" width="1.2" height="3.4" />
    <rect x="26" y="18" width="1.2" height="3.4" />
  </g>
  <circle cx="10" cy="18" r="1.15" fill="#3a5a40" />
  <circle cx="20.6" cy="11.4" r="0.85" fill="#3a5a40" />
</svg>
