<svg xmlns="http://www.w3.org/2000/svg" viewBox="0 0 48 48">
  <rect width="48" height="48" rx="12" fill="#3a5a40" />
  <g transform="translate(2.4,6.7) scale(0.9)">
    <g fill="#f4f4ec">
      <path d="M30 13.5 C34 12 38 9.8 41 5.5 C39.6 11 35.5 14 31 16.5 Z" />
      <path d="M18 13.5 C14 12 10 9.8 7 5.5 C8.4 11 12.5 14 17 16.5 Z" />
      <path d="M30.5 19 C34.5 18 38.8 19.3 39.8 23.5 C36 23.5 32.5 22.5 30 20.5 Z" />
      <path d="M17.5 19 C13.5 18 9.2 19.3 8.2 23.5 C12 23.5 15.5 22.5 18 20.5 Z" />
      <path d="M24 12 C31 12 32.5 15 32 18 C31.5 23 31 27 29 30 C27.5 33.5 25.5 34 24 34 C22.5 34 20.5 33.5 19 30 C17 27 16.5 23 16 18 C15.5 15 17 12 24 12 Z" />
      <ellipse cx="24" cy="9" rx="2.9" ry="2.2" />
      <circle cx="24" cy="6.3" r="1.8" />
      <path d="M25.4 5.3 L27.5 4.9 L25.6 6.7 Z" />
      <path d="M21.5 9.3 L19.3 8.5 L21.7 10.4 Z" />
      <rect x="23.05" y="10.9" width="0.85" height="2" />
      <rect x="24.4" y="10.9" width="0.85" height="2" />
    </g>
    <circle cx="20.5" cy="20" r="1.5" fill="#3a5a40" />
    <circle cx="27.5" cy="20" r="1.5" fill="#3a5a40" />
    <ellipse cx="22" cy="30" rx="1.1" ry="1.45" fill="#3a5a40" />
    <ellipse cx="26" cy="30" rx="1.1" ry="1.45" fill="#3a5a40" />
    <circle cx="24.4" cy="6.1" r="0.55" fill="#3a5a40" />
  </g>
</svg>
